<?xml version="1.0" encoding="UTF-8"?>
<svg id="Layer_2" data-name="Layer 2" xmlns="http://www.w3.org/2000/svg" viewBox="0 0 160 160">
  <path d="M137.88,112.12c-8.82,0-16.16,6.3-17.8,14.64h-21.81c-.79-4.01-2.94-7.5-5.9-10.09l11.3-19.57c1.85.64,3.81,1.06,5.88,1.06,10.03,0,18.15-8.13,18.15-18.15s-8.13-18.15-18.15-18.15c-2.38,0-4.63.49-6.71,1.32l-11.13-19.29c4.18-3.33,6.91-8.4,6.91-14.15,0-10.03-8.13-18.15-18.15-18.15s-18.15,8.13-18.15,18.15,8.13,18.15,18.15,18.15c1.74,0,3.39-.32,4.98-.78l11.48,19.89c-2.69,2.61-4.54,6.03-5.22,9.88h-22.68c-1.49-8.52-8.88-15.02-17.84-15.02-10.03,0-18.15,8.13-18.15,18.15,0,5.63,2.62,10.61,6.65,13.93l-11.2,19.4c-1.99-.75-4.12-1.21-6.38-1.21-10.03,0-18.15,8.13-18.15,18.15s8.13,18.15,18.15,18.15,18.15-8.13,18.15-18.15c0-5.24-2.25-9.92-5.8-13.23l11.42-19.77c1.69.52,3.45.88,5.31.88,2.1,0,4.09-.43,5.96-1.08l11.35,19.65c-3.77,3.33-6.19,8.14-6.19,13.56,0,10.03,8.13,18.15,18.15,18.15,8.82,0,16.16-6.3,17.8-14.64h21.81c1.64,8.34,8.98,14.64,17.8,14.64,10.03,0,18.15-8.13,18.15-18.15s-8.13-18.15-18.15-18.15ZM74.59,113.18l-11.36-19.68c2.8-2.5,4.85-5.81,5.69-9.61h22.93c.84,3.83,2.91,7.16,5.75,9.66l-11.32,19.6c-1.83-.62-3.76-1.04-5.81-1.04s-4.03.42-5.89,1.06Z"/>
</svg>